<svg width="19" height="15" viewBox="0 0 19 15" fill="none" xmlns="http://www.w3.org/2000/svg">
<path d="M1 14V9.41177H7V14H1Z" fill="#01576C"/>
<path d="M1 9.41177V14H7V9.41177H1ZM1 9.41177L5.5 1" stroke="#01576C" stroke-width="2"/>
<path d="M12 14V9.41177H18V14H12Z" fill="#01576C"/>
<path d="M12 9.41177L11.1182 8.94006L11 9.16109V9.41177H12ZM12 14H11V15H12V14ZM18 14V15H19V14H18ZM18 9.41177H19V8.41177H18V9.41177ZM11 9.41177V14H13V9.41177H11ZM12 15H18V13H12V15ZM19 14V9.41177H17V14H19ZM18 8.41177H12V10.4118H18V8.41177ZM12.8818 9.88347L17.3818 1.47171L15.6182 0.528292L11.1182 8.94006L12.8818 9.88347Z" fill="#01576C"/>
</svg>
